<svg xmlns="http://www.w3.org/2000/svg" viewBox="0 0 100 100">
<!-- F10 Dot Matrix Fade — grid of squares diminishing in size from left to right -->
<rect x="18" y="28" width="8" height="8" fill="#d4840a"/>
<rect x="18" y="42" width="8" height="8" fill="#d4840a"/>
<rect x="18" y="56" width="8" height="8" fill="#d4840a"/>
<rect x="18" y="70" width="8" height="8" fill="#d4840a"/>
<rect x="34" y="30" width="6" height="6" fill="#d4840a"/>
<rect x="34" y="43" width="6" height="6" fill="#d4840a"/>
<rect x="34" y="56" width="6" height="6" fill="#d4840a"/>
<rect x="34" y="69" width="6" height="6" fill="#d4840a"/>
<rect x="49" y="32" width="4.5" height="4.5" fill="#d4840a"/>
<rect x="49" y="44.5" width="4.5" height="4.5" fill="#d4840a"/>
<rect x="49" y="57" width="4.5" height="4.5" fill="#d4840a"/>
<rect x="49" y="69.5" width="4.5" height="4.5" fill="#d4840a"/>
<rect x="63" y="33.5" width="3" height="3" fill="#d4840a"/>
<rect x="63" y="45.5" width="3" height="3" fill="#d4840a"/>
<rect x="63" y="57.5" width="3" height="3" fill="#d4840a"/>
<rect x="63" y="69.5" width="3" height="3" fill="#d4840a"/>
<rect x="76" y="35" width="2" height="2" fill="#d4840a"/>
<rect x="76" y="46.5" width="2" height="2" fill="#d4840a"/>
<rect x="76" y="58" width="2" height="2" fill="#d4840a"/>
<rect x="76" y="69.5" width="2" height="2" fill="#d4840a"/>
</svg>
