<svg xmlns="http://www.w3.org/2000/svg" viewBox="0 0 100 100">
<!-- H1519-R6-04 Tighter brackets (22/78), bold arrows (1.5x), cross stroke 3.5 -->
<path d="M22,36 L22,22 L36,22" fill="none" stroke="#d4840a" stroke-width="6" stroke-linecap="butt" stroke-linejoin="miter"/>
<polygon points="36,16 36,28 45,22" fill="#d4840a"/>
<polygon points="16,36 28,36 22,45" fill="#d4840a"/>
<path d="M64,22 L78,22 L78,36" fill="none" stroke="#d4840a" stroke-width="6" stroke-linecap="butt" stroke-linejoin="miter"/>
<polygon points="64,16 64,28 55,22" fill="#d4840a"/>
<polygon points="72,36 84,36 78,45" fill="#d4840a"/>
<path d="M78,64 L78,78 L64,78" fill="none" stroke="#d4840a" stroke-width="6" stroke-linecap="butt" stroke-linejoin="miter"/>
<polygon points="72,64 84,64 78,55" fill="#d4840a"/>
<polygon points="64,72 64,84 55,78" fill="#d4840a"/>
<path d="M36,78 L22,78 L22,64" fill="none" stroke="#d4840a" stroke-width="6" stroke-linecap="butt" stroke-linejoin="miter"/>
<polygon points="36,72 36,84 45,78" fill="#d4840a"/>
<polygon points="16,64 28,64 22,55" fill="#d4840a"/>
<line x1="34" y1="50" x2="66" y2="50" stroke="#d4840a" stroke-width="3.5" stroke-linecap="butt"/>
<line x1="50" y1="34" x2="50" y2="66" stroke="#d4840a" stroke-width="3.5" stroke-linecap="butt"/>
</svg>
