<svg xmlns="http://www.w3.org/2000/svg" viewBox="0 0 100 100">
<!-- H1519-R6-05 No cross, brackets stroke 6, bold arrows (2x) — pure minimal -->
<path d="M18,32 L18,18 L32,18" fill="none" stroke="#d4840a" stroke-width="6" stroke-linecap="butt" stroke-linejoin="miter"/>
<polygon points="32,10 32,26 44,18" fill="#d4840a"/>
<polygon points="10,32 26,32 18,44" fill="#d4840a"/>
<path d="M68,18 L82,18 L82,32" fill="none" stroke="#d4840a" stroke-width="6" stroke-linecap="butt" stroke-linejoin="miter"/>
<polygon points="68,10 68,26 56,18" fill="#d4840a"/>
<polygon points="74,32 90,32 82,44" fill="#d4840a"/>
<path d="M82,68 L82,82 L68,82" fill="none" stroke="#d4840a" stroke-width="6" stroke-linecap="butt" stroke-linejoin="miter"/>
<polygon points="74,68 90,68 82,56" fill="#d4840a"/>
<polygon points="68,74 68,90 56,82" fill="#d4840a"/>
<path d="M32,82 L18,82 L18,68" fill="none" stroke="#d4840a" stroke-width="6" stroke-linecap="butt" stroke-linejoin="miter"/>
<polygon points="32,74 32,90 44,82" fill="#d4840a"/>
<polygon points="10,68 26,68 18,56" fill="#d4840a"/>
</svg>
