<svg xmlns="http://www.w3.org/2000/svg" viewBox="0 0 100 100">
<!-- H1519-R6-02 Very bold arrows (2x), bracket stroke 7, cross stroke 4 -->
<path d="M18,32 L18,18 L32,18" fill="none" stroke="#d4840a" stroke-width="7" stroke-linecap="butt" stroke-linejoin="miter"/>
<polygon points="32,10 32,26 44,18" fill="#d4840a"/>
<polygon points="10,32 26,32 18,44" fill="#d4840a"/>
<path d="M68,18 L82,18 L82,32" fill="none" stroke="#d4840a" stroke-width="7" stroke-linecap="butt" stroke-linejoin="miter"/>
<polygon points="68,10 68,26 56,18" fill="#d4840a"/>
<polygon points="74,32 90,32 82,44" fill="#d4840a"/>
<path d="M82,68 L82,82 L68,82" fill="none" stroke="#d4840a" stroke-width="7" stroke-linecap="butt" stroke-linejoin="miter"/>
<polygon points="74,68 90,68 82,56" fill="#d4840a"/>
<polygon points="68,74 68,90 56,82" fill="#d4840a"/>
<path d="M32,82 L18,82 L18,68" fill="none" stroke="#d4840a" stroke-width="7" stroke-linecap="butt" stroke-linejoin="miter"/>
<polygon points="32,74 32,90 44,82" fill="#d4840a"/>
<polygon points="10,68 26,68 18,56" fill="#d4840a"/>
<line x1="30" y1="50" x2="70" y2="50" stroke="#d4840a" stroke-width="4" stroke-linecap="butt"/>
<line x1="50" y1="30" x2="50" y2="70" stroke="#d4840a" stroke-width="4" stroke-linecap="butt"/>
</svg>
