<svg xmlns="http://www.w3.org/2000/svg" viewBox="0 0 100 100">
<!-- H1519-R6-03 Ultra-bold arrows (2.5x), bracket stroke 8, center dot r=5 -->
<path d="M18,32 L18,18 L32,18" fill="none" stroke="#d4840a" stroke-width="8" stroke-linecap="butt" stroke-linejoin="miter"/>
<polygon points="32,8 32,28 47,18" fill="#d4840a"/>
<polygon points="8,32 28,32 18,47" fill="#d4840a"/>
<path d="M68,18 L82,18 L82,32" fill="none" stroke="#d4840a" stroke-width="8" stroke-linecap="butt" stroke-linejoin="miter"/>
<polygon points="68,8 68,28 53,18" fill="#d4840a"/>
<polygon points="72,32 92,32 82,47" fill="#d4840a"/>
<path d="M82,68 L82,82 L68,82" fill="none" stroke="#d4840a" stroke-width="8" stroke-linecap="butt" stroke-linejoin="miter"/>
<polygon points="72,68 92,68 82,53" fill="#d4840a"/>
<polygon points="68,72 68,92 53,82" fill="#d4840a"/>
<path d="M32,82 L18,82 L18,68" fill="none" stroke="#d4840a" stroke-width="8" stroke-linecap="butt" stroke-linejoin="miter"/>
<polygon points="32,72 32,92 47,82" fill="#d4840a"/>
<polygon points="8,68 28,68 18,53" fill="#d4840a"/>
<circle cx="50" cy="50" r="5" fill="#d4840a"/>
</svg>
