<svg xmlns="http://www.w3.org/2000/svg" viewBox="0 0 100 100">
<!-- H1519-R6-06 Chevron arrows (stroke V-shapes), brackets stroke 6, cross stroke 3 -->
<path d="M18,32 L18,18 L32,18" fill="none" stroke="#d4840a" stroke-width="6" stroke-linecap="butt" stroke-linejoin="miter"/>
<path d="M32,11 L42,18 L32,25" fill="none" stroke="#d4840a" stroke-width="4" stroke-linecap="butt" stroke-linejoin="miter"/>
<path d="M11,32 L18,42 L25,32" fill="none" stroke="#d4840a" stroke-width="4" stroke-linecap="butt" stroke-linejoin="miter"/>
<path d="M68,18 L82,18 L82,32" fill="none" stroke="#d4840a" stroke-width="6" stroke-linecap="butt" stroke-linejoin="miter"/>
<path d="M68,11 L58,18 L68,25" fill="none" stroke="#d4840a" stroke-width="4" stroke-linecap="butt" stroke-linejoin="miter"/>
<path d="M75,32 L82,42 L89,32" fill="none" stroke="#d4840a" stroke-width="4" stroke-linecap="butt" stroke-linejoin="miter"/>
<path d="M82,68 L82,82 L68,82" fill="none" stroke="#d4840a" stroke-width="6" stroke-linecap="butt" stroke-linejoin="miter"/>
<path d="M75,68 L82,58 L89,68" fill="none" stroke="#d4840a" stroke-width="4" stroke-linecap="butt" stroke-linejoin="miter"/>
<path d="M68,75 L58,82 L68,89" fill="none" stroke="#d4840a" stroke-width="4" stroke-linecap="butt" stroke-linejoin="miter"/>
<path d="M32,82 L18,82 L18,68" fill="none" stroke="#d4840a" stroke-width="6" stroke-linecap="butt" stroke-linejoin="miter"/>
<path d="M32,75 L42,82 L32,89" fill="none" stroke="#d4840a" stroke-width="4" stroke-linecap="butt" stroke-linejoin="miter"/>
<path d="M11,68 L18,58 L25,68" fill="none" stroke="#d4840a" stroke-width="4" stroke-linecap="butt" stroke-linejoin="miter"/>
<line x1="30" y1="50" x2="70" y2="50" stroke="#d4840a" stroke-width="3" stroke-linecap="butt"/>
<line x1="50" y1="30" x2="50" y2="70" stroke="#d4840a" stroke-width="3" stroke-linecap="butt"/>
</svg>
