<svg xmlns="http://www.w3.org/2000/svg" viewBox="0 0 100 100">
  <!-- H15-19 Brackets with Small Arrows at Tips Pointing Inward -->
  <path d="M18,32 L18,18 L32,18" fill="none" stroke="#d4840a" stroke-width="4.5" stroke-linecap="butt" stroke-linejoin="miter"/>
  <polygon points="32,14 32,22 38,18" fill="#d4840a"/>
  <polygon points="14,32 22,32 18,38" fill="#d4840a"/>
  <path d="M68,18 L82,18 L82,32" fill="none" stroke="#d4840a" stroke-width="4.5" stroke-linecap="butt" stroke-linejoin="miter"/>
  <polygon points="68,14 68,22 62,18" fill="#d4840a"/>
  <polygon points="86,32 78,32 82,38" fill="#d4840a"/>
  <path d="M82,68 L82,82 L68,82" fill="none" stroke="#d4840a" stroke-width="4.5" stroke-linecap="butt" stroke-linejoin="miter"/>
  <polygon points="68,78 68,86 62,82" fill="#d4840a"/>
  <polygon points="86,68 78,68 82,62" fill="#d4840a"/>
  <path d="M32,82 L18,82 L18,68" fill="none" stroke="#d4840a" stroke-width="4.5" stroke-linecap="butt" stroke-linejoin="miter"/>
  <polygon points="32,78 32,86 38,82" fill="#d4840a"/>
  <polygon points="14,68 22,68 18,62" fill="#d4840a"/>
  <line x1="30" y1="50" x2="70" y2="50" stroke="#d4840a" stroke-width="2.5" stroke-linecap="butt"/>
  <line x1="50" y1="30" x2="50" y2="70" stroke="#d4840a" stroke-width="2.5" stroke-linecap="butt"/>
</svg>
