<svg xmlns="http://www.w3.org/2000/svg" viewBox="0 0 100 100">
  <!-- H15-10 Filled Bracket Corners + Filled Center Dot -->
  <polygon points="14,14 34,14 34,19 19,19 19,34 14,34" fill="#d4840a"/>
  <polygon points="66,14 86,14 86,34 81,34 81,19 66,19" fill="#d4840a"/>
  <polygon points="81,66 86,66 86,86 66,86 66,81 81,81" fill="#d4840a"/>
  <polygon points="14,66 19,66 19,81 34,81 34,86 14,86" fill="#d4840a"/>
  <line x1="30" y1="50" x2="44" y2="50" stroke="#d4840a" stroke-width="2" stroke-linecap="butt"/>
  <line x1="56" y1="50" x2="70" y2="50" stroke="#d4840a" stroke-width="2" stroke-linecap="butt"/>
  <line x1="50" y1="30" x2="50" y2="44" stroke="#d4840a" stroke-width="2" stroke-linecap="butt"/>
  <line x1="50" y1="56" x2="50" y2="70" stroke="#d4840a" stroke-width="2" stroke-linecap="butt"/>
  <circle cx="50" cy="50" r="5" fill="#d4840a"/>
</svg>
