<!-- E01 Trefoil Loop — three-lobed continuous knot, bold strokes -->
<svg xmlns="http://www.w3.org/2000/svg" viewBox="0 0 100 100">
  <defs>
    <mask id="e01m1">
      <rect width="100" height="100" fill="white"/>
      <path d="M44,42 L56,58" stroke="black" stroke-width="14" stroke-linecap="butt"/>
    </mask>
    <mask id="e01m2">
      <rect width="100" height="100" fill="white"/>
      <path d="M30,62 L50,30" stroke="black" stroke-width="14" stroke-linecap="butt"/>
    </mask>
  </defs>
  <!-- Bottom-left to top -->
  <path d="M50,22 C70,22 78,40 65,55 C52,70 30,72 25,60 C20,48 30,35 50,22Z" fill="none" stroke="#d4840a" stroke-width="7" stroke-linecap="butt" stroke-linejoin="miter"/>
  <!-- Top to bottom-right — weave under first strand -->
  <path d="M50,22 C30,22 22,40 35,55 C48,70 70,72 75,60 C80,48 70,35 50,22Z" fill="none" stroke="#d4840a" stroke-width="7" stroke-linecap="butt" stroke-linejoin="miter" mask="url(#e01m1)"/>
  <!-- Bottom horizontal — weave under second strand -->
  <path d="M25,60 C30,72 40,78 50,78 C60,78 70,72 75,60" fill="none" stroke="#d4840a" stroke-width="7" stroke-linecap="butt" stroke-linejoin="miter" mask="url(#e01m2)"/>
</svg>
