<!-- E06 Triple Twist — three strands braided vertically -->
<svg xmlns="http://www.w3.org/2000/svg" viewBox="0 0 100 100">
  <defs>
    <mask id="e06a">
      <rect width="100" height="100" fill="white"/>
      <rect x="28" y="38" width="18" height="12" fill="black"/>
      <rect x="54" y="62" width="18" height="12" fill="black"/>
    </mask>
    <mask id="e06b">
      <rect width="100" height="100" fill="white"/>
      <rect x="38" y="22" width="12" height="14" fill="black"/>
      <rect x="50" y="50" width="12" height="14" fill="black"/>
    </mask>
  </defs>
  <!-- Left strand -->
  <path d="M30,15 C30,35 70,45 70,50 C70,55 30,65 30,85" fill="none" stroke="#d4840a" stroke-width="7" stroke-linecap="butt" stroke-linejoin="miter"/>
  <!-- Center strand with weave -->
  <path d="M50,15 C50,35 30,42 30,50 C30,58 70,58 70,50 C70,42 50,65 50,85" fill="none" stroke="#d4840a" stroke-width="7" stroke-linecap="butt" stroke-linejoin="miter" mask="url(#e06a)"/>
  <!-- Right strand with weave -->
  <path d="M70,15 C70,35 30,45 30,50 C30,55 70,65 70,85" fill="none" stroke="#d4840a" stroke-width="7" stroke-linecap="butt" stroke-linejoin="miter" mask="url(#e06b)"/>
</svg>
