<!-- H10 Shattered Prism — large triangle fractured into offset shards -->
<svg viewBox="0 0 100 100" xmlns="http://www.w3.org/2000/svg">
  <polygon points="50,8 38,38 28,32" fill="#d4840a" transform="translate(-2,-3)"/>
  <polygon points="50,8 62,38 72,32" fill="#d4840a" transform="translate(3,-2)"/>
  <polygon points="38,38 50,50 28,52" fill="#d4840a" transform="translate(-4,1)"/>
  <polygon points="62,38 50,50 72,52" fill="#d4840a" transform="translate(4,1)"/>
  <polygon points="28,52 50,50 34,78" fill="#d4840a" transform="translate(-3,3)"/>
  <polygon points="72,52 50,50 66,78" fill="#d4840a" transform="translate(3,3)"/>
  <polygon points="34,78 50,92 50,50" fill="#d4840a" transform="translate(-1,4)"/>
  <polygon points="66,78 50,92 50,50" fill="#d4840a" transform="translate(2,4)"/>
</svg>
